<svg width="91" height="58" fill="none" xmlns="http://www.w3.org/2000/svg"><path d="M2.988 10.4h7.106l5.51 8.056 5.51-8.056h7.22L19.48 23.13 29.056 37h-7.258l-6.194-8.816L9.486 37H2.38l9.5-13.604L2.988 10.4zM28.318 37l11.856-26.6h6.08L58.148 37h-6.46L41.96 13.516h2.432L34.626 37h-6.308zm5.928-5.7l1.634-4.674h13.68l1.672 4.674H34.246zm45.67-20.9h6.155V37h-6.156V10.4zM67.83 37h-6.156V10.4h6.156V37zm12.54-10.906H67.375v-5.206h12.996v5.206zM1.117 55l4.095-9.1h1.664l4.108 9.1H9.216l-3.523-8.203h.676L2.859 55H1.117zm1.885-2.106l.455-1.326h4.914l.455 1.326H3.002zM18.776 45.9h1.69V55h-1.69v-9.1zM14.069 55h-1.69v-9.1h1.69V55zm4.836-3.9h-4.979v-1.443h4.98V51.1zm10.07 3.12v-6.89h-3.563l-.065 1.612a33.309 33.309 0 01-.117 1.729 9.922 9.922 0 01-.22 1.469c-.096.442-.23.81-.404 1.105-.173.295-.385.49-.637.585l-1.82-.26a.942.942 0 00.806-.338c.217-.243.386-.58.507-1.014.122-.433.213-.94.273-1.521a29.8 29.8 0 00.13-1.911l.104-2.886h6.67v8.32h-1.665zm-7.138 2.717l.013-3.367h10.101v3.367h-1.56V55h-6.98v1.937h-1.574zM33.543 55v-9.1h3.744c.806 0 1.495.13 2.067.39.58.26 1.027.633 1.339 1.118.312.485.468 1.062.468 1.729s-.156 1.244-.468 1.729c-.312.485-.759.858-1.34 1.118-.571.26-1.26.39-2.066.39h-2.808l.754-.793V55h-1.69zm1.69-3.237l-.754-.819h2.73c.745 0 1.304-.156 1.677-.468.38-.32.572-.767.572-1.339 0-.58-.191-1.027-.572-1.339-.373-.312-.932-.468-1.677-.468h-2.73l.754-.832v5.265zm9.086-2.08h4.524v1.391H44.32v-1.391zm.13 3.9h5.135V55H42.76v-9.1h6.643v1.417H44.45v6.266zm8.58-3.9h4.523v1.391h-4.524v-1.391zm.13 3.9h5.134V55h-6.825v-9.1h6.643v1.417h-4.953v6.266zM60.19 55v-9.1h4.07c1.022 0 1.82.204 2.391.611.572.399.858.975.858 1.729 0 .745-.273 1.322-.819 1.729-.546.399-1.265.598-2.158.598l.234-.468c1.014 0 1.799.204 2.353.611.555.407.832.997.832 1.768 0 .789-.29 1.408-.87 1.859-.581.442-1.44.663-2.575.663H60.19zm1.664-1.3h2.6c.59 0 1.036-.108 1.34-.325.303-.225.454-.568.454-1.027 0-.46-.151-.793-.455-1.001-.303-.217-.75-.325-1.339-.325h-2.6V53.7zm0-3.913h2.262c.546 0 .962-.108 1.248-.325.286-.225.43-.546.43-.962 0-.433-.144-.758-.43-.975-.286-.217-.702-.325-1.248-.325h-2.262v2.587zM69.89 55v-9.1h1.665v6.461l4.888-6.461h1.573V55H76.35v-6.448L71.463 55H69.89zm16.104-3.536c-.477.2-.94.347-1.39.442a6.34 6.34 0 01-1.314.143c-1.161 0-2.058-.277-2.69-.832-.625-.563-.937-1.37-.937-2.418V45.9h1.677v2.717c0 .641.186 1.131.56 1.469.372.338.905.507 1.598.507a5.59 5.59 0 001.248-.143 5.156 5.156 0 001.222-.442l.026 1.456zM85.733 55v-9.1h1.677V55h-1.677z" fill="#fff"/><path stroke="#FBE308" stroke-width="2" d="M0 41h91"/></svg>